<svg xmlns="http://www.w3.org/2000/svg" width="256" height="256" fill="none"><g clip-path="url(#a)"><path fill="#222" d="M216 0H40C18 0 0 18 0 40v176c0 22 18 40 40 40h176c22 0 40-18 40-40V40c0-22-18-40-40-40"/><path fill="#000" d="M210 37H46c-5 0-9 4-9 9v164c0 5 4 9 9 9h164c5 0 9-4 9-9V46c0-5-4-9-9-9"/><path stroke="#fff" stroke-opacity=".5" d="M210 37.5H46a8.5 8.5 0 0 0-8.5 8.5v164c0 4.7 3.8 8.5 8.5 8.5h164c4.7 0 8.5-3.8 8.5-8.5V46c0-4.7-3.8-8.5-8.5-8.5Z"/><path fill="#d4e4fc" d="M73 56H63a3 3 0 0 0-3 3v10a3 3 0 0 0 3 3h10a3 3 0 0 0 3-3V59a3 3 0 0 0-3-3"/><path stroke="#000" stroke-linecap="round" stroke-linejoin="round" stroke-width="2.2" d="m64 64.5 3.5 3.5 8.5-8.5"/><path fill="#e5e5e5" d="M191.5 59h-101a4.5 4.5 0 1 0 0 9h101a4.5 4.5 0 0 0 0-9"/><path fill="#d4e4fc" d="M73 88H63a3 3 0 0 0-3 3v10a3 3 0 0 0 3 3h10a3 3 0 0 0 3-3V91a3 3 0 0 0-3-3"/><path stroke="#000" stroke-linecap="round" stroke-linejoin="round" stroke-width="2.2" d="m64 96.5 3.5 3.5 8.5-8.5"/><path fill="#e5e5e5" d="M161.5 91h-71a4.5 4.5 0 1 0 0 9h71a4.5 4.5 0 0 0 0-9"/><path stroke="#ffd484" stroke-width="2" d="M73 120H63a3 3 0 0 0-3 3v10a3 3 0 0 0 3 3h10a3 3 0 0 0 3-3v-10a3 3 0 0 0-3-3Z"/><path fill="#ffd484" d="M179.5 123h-89a4.5 4.5 0 0 0 0 9h89a4.5 4.5 0 0 0 0-9"/><path stroke="#e5e5e5" stroke-width="2" d="M73 152H63a3 3 0 0 0-3 3v10a3 3 0 0 0 3 3h10a3 3 0 0 0 3-3v-10a3 3 0 0 0-3-3Z"/><path fill="#e5e5e5" d="M146.5 155h-56a4.5 4.5 0 0 0 0 9h56a4.5 4.5 0 0 0 0-9"/><path stroke="#e5e5e5" stroke-width="2" d="M73 184H63a3 3 0 0 0-3 3v10a3 3 0 0 0 3 3h10a3 3 0 0 0 3-3v-10a3 3 0 0 0-3-3Z"/><path fill="#e5e5e5" d="M171.5 187h-81a4.5 4.5 0 0 0 0 9h81a4.5 4.5 0 0 0 0-9"/></g><defs><clipPath id="a"><path fill="#fff" d="M0 0h256v256H0z"/></clipPath></defs></svg>